<?xml version="1.0" encoding="UTF-8"?>
<svg id="Layer_1" data-name="Layer 1" xmlns="http://www.w3.org/2000/svg" viewBox="0 0 123.37 83.56">
  <defs>
    <style>
      .cls-1 {
        fill: #1e1e1c;
      }

      .cls-1, .cls-2 {
        stroke-width: 0px;
      }

      .cls-2 {
        fill: #cc7a37;
      }
    </style>
  </defs>
  <g>
    <circle class="cls-2" cx="76.01" cy="12.43" r="12.43"/>
    <g>
      <path class="cls-2" d="M123.37,68.1c0,7.37-5.23,13.49-12.06,14.63-.04.01-.09.02-.14.03-1.99.47-7.15.61-9.41.65-.67.02-1.08.02-1.08.02-11.37,0-27.27.13-34.23.13-10.48,0-27.46-.32-48.01-.32-.16-.03-.34-.02-.49-.05-10.08-.82-17.95-8.43-17.95-17.68s8.68-17.55,19.45-17.7c.11-.01.21-.01.32-.01h2.04c-.16.02-.34.03-.53.05.58.04,1.15.1,1.71.18v-.23h-1.18c.67-.05,1.06-.05,1.06-.05-1.23-8.37,5.55-14.95,5.55-14.95,12.54-13.37,31.65-2.94,31.65-2.94-1.44,2.17-2.28,4.78-2.28,7.59,0,7.59,6.15,13.75,13.75,13.75s13.74-6.16,13.74-13.75c0-.82-.07-1.62-.21-2.4,12.34-4.73,18.93,4.08,18.93,4.08,5.46,6.21,1.1,14.28,1.1,14.28,1.04-.14,2.03-.16,2.98-.1.3-.02.6-.03.9-.03,7.94,0,14.39,6.64,14.39,14.82Z"/>
      <path class="cls-2" d="M22.99,47.8v.23c-.56-.08-1.13-.14-1.71-.18.19-.02.37-.03.53-.05h1.18Z"/>
    </g>
  </g>
  <path class="cls-1" d="M19.45,47.8h.32c-.11,0-.21,0-.32.01h0Z"/>
  <path class="cls-1" d="M22.99,47.8v.23c-.56-.08-1.13-.14-1.71-.18.19-.02.37-.03.53-.05h1.18Z"/>
</svg>