<?xml version="1.0" encoding="UTF-8"?>
<svg id="Layer_1" data-name="Layer 1" xmlns="http://www.w3.org/2000/svg" viewBox="0 0 76.2 76.2">
  <defs>
    <style>
      .cls-1 {
        fill: #2970d3;
        stroke-width: 0px;
      }
    </style>
  </defs>
  <path class="cls-1" d="M49.79,9.87h0s0,0,0,0c10.8-6.82,23.36,5.73,16.54,16.54h0s0,0,0,0c12.46,2.82,12.46,20.57,0,23.39h0s0,0,0,0c6.82,10.8-5.73,23.36-16.54,16.54h0s0,0,0,0c-2.82,12.46-20.57,12.46-23.39,0h0s0,0,0,0c-10.8,6.82-23.36-5.73-16.54-16.54h0s0,0,0,0c-12.46-2.82-12.46-20.57,0-23.39h0s0,0,0,0C3.04,15.6,15.6,3.04,26.41,9.87h0s0,0,0,0c2.82-12.46,20.57-12.46,23.39,0Z"/>
</svg>