<?xml version="1.0" encoding="UTF-8"?>
<svg id="Layer_1" data-name="Layer 1" xmlns="http://www.w3.org/2000/svg" viewBox="0 0 16 16">
  <defs>
    <style>
      .cls-1 {
        fill: #cc7a37;
        stroke-width: 0px;
      }
    </style>
  </defs>
  <circle class="cls-1" cx="9.86" cy="3.93" r="1.61"/>
  <g>
    <path class="cls-1" d="M16,11.15c0,.96-.68,1.75-1.56,1.9,0,0-.01,0-.02,0-.26.06-.93.08-1.22.08-.09,0-.14,0-.14,0-1.47,0-3.54.02-4.44.02-1.36,0-3.56-.04-6.23-.04-.02,0-.04,0-.06,0-1.31-.11-2.33-1.09-2.33-2.29s1.13-2.28,2.52-2.3c.01,0,.03,0,.04,0h.26s-.04,0-.07,0c.08,0,.15.01.22.02v-.03h-.15c.09,0,.14,0,.14,0-.16-1.09.72-1.94.72-1.94,1.63-1.73,4.1-.38,4.1-.38-.19.28-.3.62-.3.98,0,.98.8,1.78,1.78,1.78s1.78-.8,1.78-1.78c0-.11,0-.21-.03-.31,1.6-.61,2.46.53,2.46.53.71.81.14,1.85.14,1.85.13-.02.26-.02.39-.01.04,0,.08,0,.12,0,1.03,0,1.87.86,1.87,1.92Z"/>
    <path class="cls-1" d="M2.98,8.51v.03c-.07-.01-.15-.02-.22-.02.02,0,.05,0,.07,0h.15Z"/>
  </g>
</svg>